<?xml version="1.0" encoding="UTF-8"?>
<svg width="17px" height="17px" viewBox="0 0 17 17" version="1.1" xmlns="http://www.w3.org/2000/svg" xmlns:xlink="http://www.w3.org/1999/xlink">
    <!-- Generator: Sketch 42 (36781) - http://www.bohemiancoding.com/sketch -->
    <title>remove copy</title>
    <desc>Created with Sketch.</desc>
    <defs></defs>
    <g id="Symbols" stroke="none" stroke-width="1" fill="none" fill-rule="evenodd">
        <g id="Download-list" transform="translate(-318.000000, -25.000000)" fill="#BFC4C9">
            <g id="Download-list---experiment-line-">
                <g id="Search-and-browser">
                    <path d="M331.437113,39.8923168 L326.500009,34.9552126 L321.562905,39.8923168 C321.419472,40.03575 321.186772,40.0358944 321.04305,39.8923168 L320.107629,38.9567514 C319.964051,38.8131739 319.964196,38.5806186 320.107629,38.4370411 L325.044733,33.4997924 L320.107773,28.5628326 C319.964196,28.419255 319.96434,28.1866997 320.107773,28.0431222 L321.043194,27.1077012 C321.186772,26.9641237 321.419472,26.9641237 321.563049,27.1075568 L326.500009,32.0448055 L331.437258,27.1077012 C331.580835,26.9641237 331.813391,26.9641237 331.957113,27.1077012 L332.892678,28.0431222 C333.036111,28.1866997 333.036111,28.419255 332.892678,28.5628326 L327.95514,33.4999368 L332.892533,38.4371855 C333.035967,38.5806186 333.035967,38.8133183 332.892533,38.9568959 L331.956968,39.8923168 C331.813391,40.0358944 331.580835,40.0358944 331.437113,39.8923168 Z" id="remove-copy" transform="translate(326.500126, 33.500000) rotate(45.000000) translate(-326.500126, -33.500000) "></path>
                </g>
            </g>
        </g>
    </g>
</svg>