<svg xmlns="http://www.w3.org/2000/svg" viewBox="0 0 22 22"><defs><style>.cls-1{fill:#4ac1ff;}</style></defs><title>bug_22pp</title><path class="cls-1" d="M20.5 15a.5.5 0 0 0 0-1h-2.12a9.18 9.18 0 0 0-.3-2.32 8.59 8.59 0 0 0 2.78-1.83.5.5 0 1 0-.72-.7 7.54 7.54 0 0 1-2.37 1.58 7.68 7.68 0 0 0-3.08-3.81 3.43 3.43 0 0 0-.52-3.65l.77-1.55a.5.5 0 1 0-.89-.45l-.65 1.29a3.46 3.46 0 0 0-3.81 0l-.64-1.28a.5.5 0 1 0-.89.45l.77 1.55a3.43 3.43 0 0 0-.52 3.65 7.68 7.68 0 0 0-3.08 3.81 7.54 7.54 0 0 1-2.37-1.59.5.5 0 0 0-.72.7 8.59 8.59 0 0 0 2.78 1.83 9.18 9.18 0 0 0-.29 2.32h-2.13a.5.5 0 0 0 0 1h2.18a9 9 0 0 0 .52 2.21 8.84 8.84 0 0 0-3.07 1.94.5.5 0 1 0 .72.7 7.88 7.88 0 0 1 2.76-1.73 6.75 6.75 0 0 0 5.89 3.88 6.75 6.75 0 0 0 5.88-3.88 7.87 7.87 0 0 1 2.76 1.73.5.5 0 0 0 .72-.7 8.84 8.84 0 0 0-3.07-1.94 9 9 0 0 0 .53-2.21zm-8.5 6v-8.5a.5.5 0 0 0-1 0v8.5c-3-.3-5.37-3.31-5.37-7 0-3.86 2.64-7 5.88-7s5.88 3.14 5.88 7c-.01 3.66-2.39 6.67-5.39 7zm-3-15.5a2.48 2.48 0 0 1 .52-1.5.48.48 0 0 0 .48-.48 2.45 2.45 0 0 1 3 0 .48.48 0 0 0 .48.48 2.47 2.47 0 0 1 .32 2.48 5.86 5.86 0 0 0-4.61 0 2.49 2.49 0 0 1-.19-.98z"/></svg>