<svg xmlns="http://www.w3.org/2000/svg" viewBox="0 0 22 22"><defs><style>.cls-1{fill:#4ac1ff;}</style></defs><title>bulb_22pp</title><path class="cls-1" d="M16.84 3.14a7.56 7.56 0 0 0-5.45-2.14 7.42 7.42 0 0 0-7.39 7.07 7.13 7.13 0 0 0 2.34 5.4c1.06 1 2.47 2.44 2.47 4a.53.53 0 0 0 .53.53h4l-4 1a.5.5 0 0 0 .12 1h.12l4-1a.49.49 0 0 0 0-1 .53.53 0 0 0 .53-.53c0-1.53 1.29-3 2.38-3.94a7.14 7.14 0 0 0 2.51-5.32 7.07 7.07 0 0 0-2.16-5.07zm-.74.75a6 6 0 0 1 1.83 4.32 6.09 6.09 0 0 1-2.09 4.56c-1.13 1-2.61 2.52-2.85 4.23h-2.99c-.25-1.78-1.83-3.3-2.93-4.31a6.09 6.09 0 0 1-2-4.6 6.49 6.49 0 0 1 11-4.2zM13.38 20l-4 1a.5.5 0 0 0 .12 1h.12l4-1a.5.5 0 1 0-.24-1zM10 13.5a.5.5 0 0 0 1 0 18.29 18.29 0 0 0-.82-4.5h2.64a18.27 18.27 0 0 0-.82 4.5.5.5 0 0 0 1 0 20 20 0 0 1 1-4.84.5.5 0 0 0-.5-.66h-4a.5.5 0 0 0-.5.66 20 20 0 0 1 1 4.84z"/></svg>