<?xml version="1.0" encoding="UTF-8"?>
<svg width="42px" height="50px" viewBox="0 0 42 50" version="1.1" xmlns="http://www.w3.org/2000/svg" xmlns:xlink="http://www.w3.org/1999/xlink">
    <!-- Generator: Sketch 43.1 (39012) - http://www.bohemiancoding.com/sketch -->
    <title>icon_gift</title>
    <desc>Created with Sketch.</desc>
    <defs></defs>
    <g id="App-view" stroke="none" stroke-width="1" fill="none" fill-rule="evenodd">
        <g id="Share-DG-popup" transform="translate(-569.000000, -261.000000)">
            <g id="Popups">
                <g id="Share-DonutGlaze" transform="translate(394.000000, 238.000000)">
                    <g id="icon_gift" transform="translate(175.000000, 23.000000)">
                        <g id="Donut">
                            <g>
                                <path d="M24.8637167,20.7081892 L17.4448198,24.9820107 C16.0836056,25.7660587 14.3822008,24.7859611 14.3822008,23.2178651 L14.3822008,14.670222 C14.3822008,13.1019755 16.0836056,12.1218779 17.4448198,12.9059259 L24.8637167,17.1797474 C26.2246294,17.9639459 26.2246294,19.9241412 24.8637167,20.7081892 M19.032677,0.102817447 C8.60393889,0.102817447 0.149692857,8.53821721 0.149692857,18.9440435 C0.149692857,29.3497194 8.60393889,37.7852696 19.032677,37.7852696 C29.4612643,37.7852696 37.9156611,29.3497194 37.9156611,18.9440435 C37.9156611,8.53821721 29.4612643,0.102817447 19.032677,0.102817447" id="Fill-2" fill="#FFCA9C"></path>
                                <path d="M24.8637167,20.7081892 L17.4448198,24.9820107 C16.0836056,25.7660587 14.3822008,24.7859611 14.3822008,23.2178651 L14.3822008,14.670222 C14.3822008,13.1019755 16.0836056,12.1218779 17.4448198,12.9059259 L24.8637167,17.1797474 C26.2246294,17.9639459 26.2246294,19.9241412 24.8637167,20.7081892 M32.7995341,13.2545421 C32.0040976,11.3405381 32.1407167,8.74991469 30.6949071,7.30760336 C29.2493992,5.86499112 26.6528833,6.00130804 24.7346373,5.20763057 C22.8840976,4.4419387 21.160677,2.4874609 19.032677,2.4874609 C16.904677,2.4874609 15.1811056,4.4419387 13.3307167,5.20763057 C11.4123198,6.00115758 8.81610556,5.86499112 7.37029603,7.3074529 C5.9246373,8.74991469 6.06125635,11.3405381 5.26581984,13.2545421 C4.49828016,15.1009895 2.53962143,16.8207494 2.53962143,18.9440435 C2.53962143,21.0673377 4.49828016,22.7869471 5.26566905,24.6333945 C6.06125635,26.5473985 5.9246373,29.1380219 7.37029603,30.5804837 C8.81595476,32.0229455 11.4123198,31.8866286 13.3307167,32.6804565 C15.1811056,33.4461484 16.904677,35.4004757 19.032677,35.4004757 C21.160677,35.4004757 22.8840976,33.4461484 24.7346373,32.6804565 C26.6528833,31.8866286 29.2492484,32.0229455 30.6949071,30.5804837 C32.1405659,29.1380219 32.0040976,26.5473985 32.7995341,24.6333945 C33.566923,22.7869471 35.5255817,21.0673377 35.5255817,18.9440435 C35.5255817,16.8207494 33.566923,15.1009895 32.7995341,13.2545421" id="Fill-4" fill="#FF708A"></path>
                                <path d="M19.1416706,9.73598559 C18.5507103,9.73598559 18.0716389,9.25797359 18.0716389,8.66847059 L18.0716389,6.53313966 C18.0716389,5.94348619 18.5507103,5.46562465 19.1416706,5.46562465 C19.7324802,5.46562465 20.2115516,5.94348619 20.2115516,6.53313966 L20.2115516,8.66847059 C20.2115516,9.25797359 19.7324802,9.73598559 19.1416706,9.73598559" id="Fill-6" fill="#8FE1FF"></path>
                                <path d="M19.1416706,32.4224173 C18.5507103,32.4224173 18.0716389,31.9444053 18.0716389,31.3549023 L18.0716389,29.2195713 C18.0716389,28.6300683 18.5507103,28.1520563 19.1416706,28.1520563 C19.7324802,28.1520563 20.2115516,28.6300683 20.2115516,29.2195713 L20.2115516,31.3549023 C20.2115516,31.9444053 19.7324802,32.4224173 19.1416706,32.4224173" id="Fill-8" fill="#8FE1FF"></path>
                                <path d="M31.5799302,20.0115886 L29.4398667,20.0115886 C28.8490571,20.0115886 28.3699857,19.5335766 28.3699857,18.9440736 C28.3699857,18.3544202 28.8490571,17.8765586 29.4398667,17.8765586 L31.5799302,17.8765586 C32.1708905,17.8765586 32.6499619,18.3544202 32.6499619,18.9440736 C32.6499619,19.5335766 32.1708905,20.0115886 31.5799302,20.0115886" id="Fill-10" fill="#FFBD85"></path>
                                <path d="M8.84308254,20.0115886 L6.70332063,20.0115886 C6.11236032,20.0115886 5.63328889,19.5335766 5.63328889,18.9440736 C5.63328889,18.3544202 6.11236032,17.8765586 6.70332063,17.8765586 L8.84308254,17.8765586 C9.43404286,17.8765586 9.91311429,18.3544202 9.91311429,18.9440736 C9.91311429,19.5335766 9.43404286,20.0115886 8.84308254,20.0115886" id="Fill-12" fill="#FFBD85"></path>
                                <path d="M26.4236468,12.7456407 C26.1498056,12.7456407 25.8759643,12.6415222 25.6669643,12.4329844 C25.2492659,12.0160592 25.2492659,11.3400416 25.6669643,10.9232669 L27.1801786,9.41339896 C27.5980278,8.99632333 28.2752421,8.99647379 28.6933929,9.4132485 C29.1110913,9.83032413 29.1110913,10.5061913 28.6933929,10.9231164 L27.1803294,12.4328339 C26.9713294,12.6415222 26.6974881,12.7456407 26.4236468,12.7456407" id="Fill-14" fill="#FFC9E5"></path>
                                <path d="M10.3462992,28.7873444 C10.0723071,28.7873444 9.79861667,28.6832259 9.58961667,28.4746881 C9.17176746,28.0577629 9.17176746,27.3818958 9.58961667,26.9648202 L11.1029817,25.4551027 C11.5211325,25.0378766 12.1983468,25.038328 12.616196,25.4551027 C13.0338944,25.8720279 13.0338944,26.547895 12.616196,26.9649706 L11.1029817,28.4746881 C10.893831,28.6832259 10.6198389,28.7873444 10.3462992,28.7873444" id="Fill-16" fill="#FFC9E5"></path>
                                <path d="M27.9367254,28.7873444 C27.6628841,28.7873444 27.3890429,28.6832259 27.1800429,28.4746881 L25.6669794,26.9648202 C25.249281,26.547895 25.249281,25.8720279 25.6669794,25.4551027 C26.085281,25.0378766 26.7624952,25.038328 27.1801937,25.4551027 L28.6934079,26.9649706 C29.1111063,27.3818958 29.1111063,28.0577629 28.6934079,28.4746881 C28.4844079,28.6832259 28.2102651,28.7873444 27.9367254,28.7873444" id="Fill-18" fill="#FFE28C"></path>
                                <path d="M11.8595437,12.7456407 C11.5857024,12.7456407 11.3118611,12.6415222 11.1028611,12.4329844 L9.58964683,10.9232669 C9.17179762,10.5061913 9.17179762,9.83032413 9.58964683,9.41339896 C10.0076468,8.99632333 10.6848611,8.99647379 11.1028611,9.4132485 L12.6162262,10.9231164 C13.0339246,11.3400416 13.0339246,12.0160592 12.6162262,12.4328339 C12.4072262,12.6415222 12.1333849,12.7456407 11.8595437,12.7456407" id="Fill-20" fill="#FFE28C"></path>
                            </g>
                        </g>
                        <g id="hand" transform="translate(4.000000, 32.000000)">
                            <path d="M28.682,14.167 L28.177,14.167 C27.865,14.167 27.572,14.021 27.382,13.774 L26.464,12.572 L12.972,12.572 C12.78,12.572 12.591,12.516 12.429,12.412 L1.509,5.355 C1.471,5.331 1.434,5.303 1.4,5.273 C0.594,4.581 0.072,3.333 0.831,2.228 C1.293,1.556 1.997,1.186 2.813,1.186 C3.577,1.186 4.195,1.504 4.312,1.569 C6.864,2.771 11.502,4.767 12.852,4.884 C13.624,4.949 15.198,5.034 16.721,5.019 C15.845,4.77 14.888,4.522 13.997,4.313 C13.96,4.304 13.924,4.293 13.888,4.281 C12.668,3.844 12.379,2.866 12.501,2.161 C12.672,1.178 13.608,0.377 14.588,0.377 C15.991,0.377 17.886,0.377 21.718,0.406 C23.924,0.424 31.027,2.261 31.027,3.76 C31.027,3.807 31.024,3.855 31.017,3.902 L29.673,13.309 C29.602,13.801 29.18,14.167 28.682,14.167 L28.682,14.167 Z" id="Shape" fill="#3B4751"></path>
                            <path d="M13.267,10.572 L26.958,10.572 C27.27,10.572 27.563,10.718 27.753,10.965 L27.949,11.223 L28.93,4.352 C27.578,3.747 24.338,2.427 21.701,2.407 C17.877,2.378 15.986,2.378 14.587,2.378 C14.582,2.38 14.573,2.386 14.564,2.394 C20.801,3.864 21.203,4.627 21.396,4.996 C21.583,5.352 21.57,5.767 21.365,6.106 C21.04,6.642 20.512,7.021 16.656,7.021 C15.062,7.021 13.51,6.95 12.681,6.878 C10.53,6.692 4.126,3.692 3.403,3.351 C3.283,3.289 3.039,3.188 2.814,3.188 C2.654,3.188 2.57,3.232 2.48,3.363 C2.466,3.443 2.562,3.61 2.674,3.728 L13.267,10.572 L13.267,10.572 Z" id="Path" fill="#FFFFFF"></path>
                            <path d="M36.695,18 C36.619,18 36.542,17.991 36.466,17.974 L28.388,16.072 C27.885,15.953 27.555,15.469 27.627,14.958 L29.375,2.665 C29.413,2.399 29.556,2.16 29.772,2.001 C29.988,1.842 30.26,1.775 30.524,1.818 L36.854,2.838 C37.338,2.916 37.695,3.334 37.695,3.825 L37.695,17 C37.695,17.306 37.555,17.595 37.316,17.784 C37.138,17.925 36.918,18 36.695,18 L36.695,18 Z M29.736,14.334 L35.695,15.737 L35.695,4.676 L31.212,3.954 L29.736,14.334 L29.736,14.334 Z" id="Shape" fill="#3B4751"></path>
                        </g>
                    </g>
                </g>
            </g>
        </g>
    </g>
</svg>