<?xml version="1.0" encoding="UTF-8"?>
<svg width="32px" height="32px" viewBox="0 0 32 32" version="1.1" xmlns="http://www.w3.org/2000/svg" xmlns:xlink="http://www.w3.org/1999/xlink">
    <!-- Generator: Sketch 43.1 (39012) - http://www.bohemiancoding.com/sketch -->
    <title>Donut</title>
    <desc>Created with Sketch.</desc>
    <defs></defs>
    <g id="Branding" stroke="none" stroke-width="1" fill="none" fill-rule="evenodd">
        <g id="Logo---Dark-BG" transform="translate(-191.000000, -310.000000)">
            <g id="Donut" transform="translate(191.000000, 310.000000)">
                <path d="M20.9378667,17.4384751 L14.6903746,21.0374827 C13.5440889,21.6977337 12.111327,20.8723883 12.111327,19.5518864 L12.111327,12.3538712 C12.111327,11.0332425 13.5440889,10.2078972 14.6903746,10.8681481 L20.9378667,14.4671557 C22.0838984,15.1275334 22.0838984,16.7782241 20.9378667,17.4384751 M16.0275175,0.0865831132 C7.24542222,0.0865831132 0.126057143,7.19007765 0.126057143,15.9528788 C0.126057143,24.7155532 7.24542222,31.8191744 16.0275175,31.8191744 C24.8094857,31.8191744 31.9289778,24.7155532 31.9289778,15.9528788 C31.9289778,7.19007765 24.8094857,0.0865831132 16.0275175,0.0865831132" id="Fill-2" fill="#FFCA9C"></path>
                <path d="M20.9378667,17.4384751 L14.6903746,21.0374827 C13.5440889,21.6977337 12.111327,20.8723883 12.111327,19.5518864 L12.111327,12.3538712 C12.111327,11.0332425 13.5440889,10.2078972 14.6903746,10.8681481 L20.9378667,14.4671557 C22.0838984,15.1275334 22.0838984,16.7782241 20.9378667,17.4384751 M27.6206603,11.1617197 C26.950819,9.54992685 27.0658667,7.36834921 25.8483429,6.15377125 C24.631073,4.93893989 22.4445333,5.05373309 20.8291683,4.38537311 C19.270819,3.74057995 17.8195175,2.09470392 16.0275175,2.09470392 C14.2355175,2.09470392 12.7840889,3.74057995 11.2258667,4.38537311 C9.6103746,5.05360639 7.42408889,4.93893989 6.20656508,6.15364455 C4.98916825,7.36834921 5.10421587,9.54992685 4.4343746,11.1617197 C3.7880254,12.7166228 2.13862857,14.1648416 2.13862857,15.9528788 C2.13862857,17.7409159 3.7880254,19.1890081 4.43424762,20.7439111 C5.10421587,22.355704 4.98916825,24.5372816 6.20656508,25.7519863 C7.4239619,26.9666909 9.6103746,26.8518977 11.2258667,27.5203844 C12.7840889,28.1651776 14.2355175,29.8109269 16.0275175,29.8109269 C17.8195175,29.8109269 19.270819,28.1651776 20.8291683,27.5203844 C22.4445333,26.8518977 24.630946,26.9666909 25.8483429,25.7519863 C27.0657397,24.5372816 26.950819,22.355704 27.6206603,20.7439111 C28.2668825,19.1890081 29.9162794,17.7409159 29.9162794,15.9528788 C29.9162794,14.1648416 28.2668825,12.7166228 27.6206603,11.1617197" id="Fill-4" fill="#FF708A"></path>
                <path d="M16.1193016,8.19872471 C15.6216508,8.19872471 15.2182222,7.79618829 15.2182222,7.29976471 L15.2182222,5.50159129 C15.2182222,5.00504101 15.6216508,4.60263128 16.1193016,4.60263128 C16.6168254,4.60263128 17.020254,5.00504101 17.020254,5.50159129 L17.020254,7.29976471 C17.020254,7.79618829 16.6168254,8.19872471 16.1193016,8.19872471" id="Fill-6" fill="#8FE1FF"></path>
                <path d="M16.1193016,27.3030882 C15.6216508,27.3030882 15.2182222,26.9005518 15.2182222,26.4041282 L15.2182222,24.6059548 C15.2182222,24.1095312 15.6216508,23.7069948 16.1193016,23.7069948 C16.6168254,23.7069948 17.020254,24.1095312 17.020254,24.6059548 L17.020254,26.4041282 C17.020254,26.9005518 16.6168254,27.3030882 16.1193016,27.3030882" id="Fill-8" fill="#8FE1FF"></path>
                <path d="M26.5936254,16.8518641 L24.7914667,16.8518641 C24.2939429,16.8518641 23.8905143,16.4493277 23.8905143,15.9529041 C23.8905143,15.4563538 24.2939429,15.0539441 24.7914667,15.0539441 L26.5936254,15.0539441 C27.0912762,15.0539441 27.4947048,15.4563538 27.4947048,15.9529041 C27.4947048,16.4493277 27.0912762,16.8518641 26.5936254,16.8518641" id="Fill-10" fill="#FFBD85"></path>
                <path d="M7.44680635,16.8518641 L5.64490159,16.8518641 C5.14725079,16.8518641 4.74382222,16.4493277 4.74382222,15.9529041 C4.74382222,15.4563538 5.14725079,15.0539441 5.64490159,15.0539441 L7.44680635,15.0539441 C7.94445714,15.0539441 8.34788571,15.4563538 8.34788571,15.9529041 C8.34788571,16.4493277 7.94445714,16.8518641 7.44680635,16.8518641" id="Fill-12" fill="#FFBD85"></path>
                <path d="M22.2514921,10.7331711 C22.0208889,10.7331711 21.7902857,10.6454924 21.6142857,10.4698816 C21.2625397,10.1187867 21.2625397,9.54950873 21.6142857,9.19854055 L22.8885714,7.92707281 C23.2404444,7.57585122 23.8107302,7.57597793 24.1628571,7.9269461 C24.5146032,8.27816769 24.5146032,8.84731897 24.1628571,9.19841385 L22.8886984,10.4697549 C22.7126984,10.6454924 22.4820952,10.7331711 22.2514921,10.7331711" id="Fill-14" fill="#FFC9E5"></path>
                <path d="M8.71267302,24.2419742 C8.48194286,24.2419742 8.25146667,24.1542955 8.07546667,23.9786847 C7.72359365,23.6275898 7.72359365,23.0584386 8.07546667,22.707217 L9.34987937,21.4358759 C9.70200635,21.0845277 10.2722921,21.0849078 10.6241651,21.4358759 C10.9759111,21.7869708 10.9759111,22.3561221 10.6241651,22.7073437 L9.34987937,23.9786847 C9.17375238,24.1542955 8.94302222,24.2419742 8.71267302,24.2419742" id="Fill-16" fill="#FFC9E5"></path>
                <path d="M23.5256635,24.2419742 C23.2950603,24.2419742 23.0644571,24.1542955 22.8884571,23.9786847 L21.6142984,22.707217 C21.2625524,22.3561221 21.2625524,21.7869708 21.6142984,21.4358759 C21.9665524,21.0845277 22.5368381,21.0849078 22.8885841,21.4358759 L24.1628698,22.7073437 C24.5146159,23.0584386 24.5146159,23.6275898 24.1628698,23.9786847 C23.9868698,24.1542955 23.7560127,24.2419742 23.5256635,24.2419742" id="Fill-18" fill="#FFE28C"></path>
                <path d="M9.98698413,10.7331711 C9.75638095,10.7331711 9.52577778,10.6454924 9.34977778,10.4698816 L8.07549206,9.19854055 C7.72361905,8.84731897 7.72361905,8.27816769 8.07549206,7.92707281 C8.42749206,7.57585122 8.99777778,7.57597793 9.34977778,7.9269461 L10.6241905,9.19841385 C10.9759365,9.54950873 10.9759365,10.1187867 10.6241905,10.4697549 C10.4481905,10.6454924 10.2175873,10.7331711 9.98698413,10.7331711" id="Fill-20" fill="#FFE28C"></path>
            </g>
        </g>
    </g>
</svg>