<svg xmlns="http://www.w3.org/2000/svg" xmlns:xlink="http://www.w3.org/1999/xlink" width="213" height="39" viewBox="0 0 213 39">
  <defs>
    <polygon id="logo_full-a" points="0 38.333 0 .186 37.936 .186 37.936 38.333 0 38.333"/>
  </defs>
  <g fill="none" fill-rule="evenodd" transform="translate(-.049)">
    <g transform="translate(0 .052)">
      <mask id="logo_full-b" fill="#fff">
        <use xlink:href="#logo_full-a"/>
      </mask>
      <path fill="#FFCA9C" d="M24.8250594,21.0456667 L17.3725716,25.3720952 C16.0056706,26.1659048 14.2963931,25.1737619 14.2963931,23.5861429 L14.2963931,14.9332857 C14.2963931,13.3456667 16.0056706,12.3535238 17.3725716,13.1473333 L24.8250594,17.4737619 C26.1919604,18.2675714 26.1919604,20.2518571 24.8250594,21.0456667 M18.9679604,0.186142857 C8.49233172,0.186142857 -7.1032448e-05,8.72566667 -7.1032448e-05,19.2597143 C-7.1032448e-05,29.7937619 8.49233172,38.3332857 18.9679604,38.3332857 C29.4435891,38.3332857 37.9355183,29.7937619 37.9355183,19.2597143 C37.9355183,8.72566667 29.4435891,0.186142857 18.9679604,0.186142857" mask="url(#logo_full-b)"/>
    </g>
    <circle cx="19" cy="19" r="8" fill="#FFF"/>
    <path fill="#FF708A" d="M24.8250594,21.0978095 L17.3725716,25.4242381 C16.0056706,26.2180476 14.2963931,25.2259048 14.2963931,23.6382857 L14.2963931,14.9854286 C14.2963931,13.3978095 16.0056706,12.4056667 17.3725716,13.1994762 L24.8250594,17.5259048 C26.1919604,18.3197143 26.1919604,20.304 24.8250594,21.0978095 M32.7965575,13.5523333 C31.9976792,11.6144762 32.1347718,8.99209524 30.682395,7.53185714 C29.230255,6.07161905 26.6224171,6.20947619 24.6955435,5.40590476 C22.8366243,4.63090476 21.1055636,2.65233333 18.9679604,2.65233333 C16.8301205,2.65233333 15.0990597,4.63090476 13.2401406,5.40590476 C11.313267,6.20947619 8.70542907,6.07161905 7.25305227,7.53161905 C5.80091225,8.99209524 5.93800488,11.6144762 5.13888983,13.5523333 C4.36818777,15.421619 2.40082572,17.1623333 2.40082572,19.3118571 C2.40082572,21.461381 4.36818777,23.2020952 5.13888983,25.071381 C5.93800488,27.009 5.80067548,29.631619 7.25305227,31.0918571 C8.70519229,32.5520952 11.313267,32.4142381 13.2401406,33.2178095 C15.0990597,33.9928095 16.8301205,35.971381 18.9679604,35.971381 C21.1055636,35.971381 22.8366243,33.9928095 24.6955435,33.2178095 C26.6224171,32.4142381 29.230255,32.5520952 30.682395,31.0918571 C32.1345351,29.631619 31.9976792,27.0092381 32.7965575,25.071381 C33.5674963,23.2020952 35.5348584,21.461381 35.5348584,19.3118571 C35.5348584,17.1623333 33.5674963,15.421619 32.7965575,13.5523333"/>
    <g transform="translate(5 5)">
      <path fill="#8FE1FF" d="M14.0772557 4.9902381C13.4836612 4.9902381 13.0025347 4.50642857 13.0025347 3.90952381L13.0025347 1.74785714C13.0025347 1.15095238 13.4836612.667142857 14.0772557.667142857 14.6708502.667142857 15.1519766 1.15095238 15.1519766 1.74785714L15.1519766 3.90952381C15.1519766 4.50642857 14.6708502 4.9902381 14.0772557 4.9902381M14.0772557 27.9565476C13.4836612 27.9565476 13.0025347 27.4727381 13.0025347 26.8758333L13.0025347 24.7141667C13.0025347 24.1172619 13.4836612 23.6334524 14.0772557 23.6334524 14.6708502 23.6334524 15.1519766 24.1172619 15.1519766 24.7141667L15.1519766 26.8758333C15.1519766 27.4727381 14.6708502 27.9565476 14.0772557 27.9565476"/>
      <path fill="#FFBD85" d="M26.5715082 15.3925952L24.4218295 15.3925952C23.828235 15.3925952 23.3471086 14.9087857 23.3471086 14.311881 23.3471086 13.7149762 23.828235 13.2311667 24.4218295 13.2311667L26.5715082 13.2311667C27.1651027 13.2311667 27.6462291 13.7149762 27.6462291 14.311881 27.6462291 14.9087857 27.1651027 15.3925952 26.5715082 15.3925952M3.73246875 15.3925952L1.58302686 15.3925952C.98943237 15.3925952.508305919 14.9087857.508305919 14.311881.508305919 13.7149762.98943237 13.2311667 1.58302686 13.2311667L3.73246875 13.2311667C4.32606324 13.2311667 4.8071897 13.7149762 4.8071897 14.311881 4.8071897 14.9087857 4.32606324 15.3925952 3.73246875 15.3925952"/>
      <path fill="#FFC9E5" d="M21.3920588 8.037C21.1169265 8.037 20.8420309 7.93152381 20.6320116 7.72057143 20.2124466 7.29842857 20.2124466 6.61414286 20.6320116 6.192L22.1518693 4.66366667C22.571671 4.24152381 23.2519251 4.24152381 23.6719637 4.66366667 24.0915287 5.08557143 24.0915287 5.77009524 23.6719637 6.192L22.152106 7.72033333C21.9420868 7.93152381 21.6671912 8.037 21.3920588 8.037M5.24235815 24.2766429C4.9672258 24.2766429 4.69233023 24.1711667 4.48231095 23.9599762 4.06274596 23.5380714 4.06274596 22.8537857 4.48231095 22.4316429L6.00240535 20.9033095C6.42244389 20.4809286 7.10269797 20.4814048 7.52249974 20.9033095 7.94206474 21.3252143 7.94206474 22.0097381 7.52249974 22.4316429L6.00240535 23.9602143C5.79238608 24.1711667 5.51725373 24.2766429 5.24235815 24.2766429"/>
      <path fill="#FFE28C" d="M22.9119165 24.2766429C22.6367841 24.2766429 22.3618885 24.1711667 22.1518693 23.9599762L20.6320116 22.4316429C20.2124466 22.0097381 20.2124466 21.3252143 20.6320116 20.9033095 21.052287 20.4809286 21.732541 20.4814048 22.152106 20.9033095L23.6719637 22.4316429C24.0915287 22.8537857 24.0915287 23.5380714 23.6719637 23.9602143 23.4619444 24.1711667 23.186812 24.2766429 22.9119165 24.2766429M6.76242887 8.037C6.48729652 8.037 6.21240094 7.93152381 6.00238167 7.72057143L4.48228728 6.192C4.06272228 5.77009524 4.06272228 5.08557143 4.48228728 4.66366667 4.90232582 4.24152381 5.5825799 4.24152381 6.00238167 4.66366667L7.52247607 6.192C7.94204106 6.61414286 7.94204106 7.29842857 7.52247607 7.72033333 7.31245679 7.93152381 7.03756122 8.037 6.76242887 8.037"/>
    </g>
    <path fill="#FFF" d="M57.1401826 27.0768333C58.7807954 27.0768333 60.2215702 26.7401667 61.4625071 26.0656429 62.7029704 25.3918333 63.6635659 24.456119 64.3440567 23.2587381 65.0238372 22.0618333 65.3643194 20.6780238 65.3643194 19.1087381 65.3643194 17.5389762 65.0238372 16.155881 64.3440567 14.9585 63.6635659 13.7615952 62.7029704 12.825881 61.4625071 12.1513571 60.2215702 11.4773095 58.7807954 11.1401667 57.1401826 11.1401667L52.8180949 11.1401667 52.8180949 27.0768333 57.1401826 27.0768333zM50.4768654 29.2499286C50.2166498 28.9887381 50.0866605 28.6665952 50.0866605 28.2842143L50.0866605 9.9632619C50.0866605 9.58111905 50.2166498 9.25397619 50.4768654 8.98230952 50.7366074 8.71064286 51.0572005 8.57469048 51.4372241 8.57469048L57.4704835 8.57469048C59.7515722 8.57469048 61.6874431 9.0832619 63.2783332 10.0989762 64.8692233 11.1154048 66.0644626 12.4282619 66.8652351 14.0377857 67.6652972 15.6480238 68.0659202 17.3382619 68.0659202 19.1087381 68.0659202 20.8794524 67.6652972 22.5696905 66.8652351 24.1794524 66.0644626 25.7892143 64.8692233 27.1023095 63.2783332 28.1182619 61.6874431 29.1344524 59.7515722 29.6423095 57.4704835 29.6423095L51.4372241 29.6423095C51.0572005 29.6423095 50.7366074 29.5118333 50.4768654 29.2499286L50.4768654 29.2499286zM80.6273694 26.8654762C81.3777089 26.4835714 81.9978221 25.88 82.487946 25.0547619 82.9783067 24.2297619 83.2236054 23.1833333 83.2236054 21.9157143 83.2236054 20.6683333 82.9783067 19.6321429 82.487946 18.8066667 81.9978221 17.9819048 81.3777089 17.3833333 80.6273694 17.0107143 79.8767932 16.6388095 79.0914111 16.452619 78.2709864 16.452619 77.4306725 16.452619 76.6353458 16.6388095 75.8847696 17.0107143 75.1344302 17.3833333 74.5190524 17.9819048 74.0388731 18.8066667 73.5586937 19.6321429 73.3183673 20.6683333 73.3183673 21.9157143 73.3183673 23.1833333 73.5586937 24.2297619 74.0388731 25.0547619 74.5190524 25.88 75.1344302 26.4835714 75.8847696 26.8654762 76.6353458 27.2478571 77.4306725 27.4390476 78.2709864 27.4390476 79.0914111 27.4390476 79.8767932 27.2478571 80.6273694 26.8654762M74.2190587 28.9483333C73.0581517 28.2840476 72.1631429 27.3438095 71.5326115 26.1261905 70.9023169 24.9088095 70.5871696 23.5152381 70.5871696 21.9457143 70.5871696 20.3761905 70.9023169 18.9830952 71.5326115 17.7654762 72.1631429 16.5480952 73.0581517 15.607381 74.2190587 14.9433333 75.3792554 14.2792857 76.7300558 13.947381 78.2709864 13.947381 79.7915543 13.947381 81.1324101 14.2792857 82.2930804 14.9433333 83.4535138 15.607381 84.3539685 16.5480952 84.9942076 17.7654762 85.6344467 18.9830952 85.9550398 20.3761905 85.9550398 21.9457143 85.9550398 23.5152381 85.6344467 24.9088095 84.9942076 26.1261905 84.3539685 27.3438095 83.4535138 28.2840476 82.2930804 28.9483333 81.1324101 29.6121429 79.7915543 29.9442857 78.2709864 29.9442857 76.7300558 29.9442857 75.3792554 29.6121429 74.2190587 28.9483333M90.1568696 29.4009286C89.8964173 29.1395 89.7669015 28.8175952 89.7669015 28.4349762L89.7669015 15.4866429C89.7669015 15.1047381 89.8964173 14.7773571 90.1568696 14.5056905 90.4166116 14.2340238 90.7367312 14.0983095 91.1174651 14.0983095 91.4970151 14.0983095 91.8225805 14.2340238 92.0927406 14.5056905 92.3626639 14.7773571 92.4980991 15.1047381 92.4980991 15.4866429L92.4980991 16.7242619C93.2583831 15.8790238 94.0783343 15.2049762 94.9591367 14.701881 95.8394655 14.1992619 96.8803276 13.9473571 98.0810128 13.9473571 99.1810686 13.9473571 100.136692 14.2090238 100.947172 14.732119 101.757889 15.2554524 102.377766 15.9695 102.808222 16.8749762 103.238442 17.7804524 103.453434 18.7764048 103.453434 19.8630714L103.453434 28.4349762C103.453434 28.8175952 103.318709 29.1395 103.048312 29.4009286 102.778389 29.6623571 102.452823 29.7933095 102.073036 29.7933095 101.692539 29.7933095 101.372183 29.6623571 101.112441 29.4009286 100.851989 29.1395 100.722236 28.8175952 100.722236 28.4349762L100.722236 20.1649762C100.722236 17.7102143 99.6214698 16.4828333 97.4206478 16.4828333 96.4198006 16.4828333 95.5243182 16.7445 94.7342006 17.2673571 93.9433727 17.7909286 93.1984791 18.4949762 92.4980991 19.3802143L92.4980991 28.4349762C92.4980991 28.8175952 92.3626639 29.1395 92.0927406 29.4009286 91.8225805 29.6623571 91.4970151 29.7933095 91.1174651 29.7933095 90.7367312 29.7933095 90.4166116 29.6623571 90.1568696 29.4009286M110.282043 29.1594524C109.471563 28.6363571 108.851213 27.9220714 108.42123 27.0165952 107.9903 26.110881 107.775782 25.1149286 107.775782 24.0282619L107.775782 15.4563571C107.775782 15.0744524 107.910507 14.7523095 108.180904 14.4906429 108.451064 14.2292143 108.776155 14.0982619 109.156416 14.0982619 109.536203 14.0982619 109.856322 14.2292143 110.117011 14.4906429 110.376516 14.7523095 110.506979 15.0744524 110.506979 15.4563571L110.506979 23.7265952C110.506979 26.1818333 111.607272 27.4087381 113.808804 27.4087381 114.808941 27.4087381 115.704424 27.1475476 116.495015 26.6239762 117.285369 26.101119 118.030736 25.3970714 118.731353 24.5113571L118.731353 15.4563571C118.731353 15.0744524 118.866552 14.7523095 119.136475 14.4906429 119.406635 14.2292143 119.731727 14.0982619 120.111987 14.0982619 120.492011 14.0982619 120.812367 14.2292143 121.072346 14.4906429 121.332561 14.7523095 121.462787 15.0744524 121.462787 15.4563571L121.462787 28.4049286C121.462787 28.7875476 121.332561 29.1142143 121.072346 29.385881 120.812367 29.6575476 120.492011 29.7932619 120.111987 29.7932619 119.731727 29.7932619 119.406635 29.6575476 119.136475 29.385881 118.866552 29.1142143 118.731353 28.7875476 118.731353 28.4049286L118.731353 27.1673095C117.970832 28.0125476 117.150171 28.6868333 116.270079 29.1894524 115.389276 29.6923095 114.349125 29.9442143 113.148439 29.9442143 112.04791 29.9442143 111.092524 29.6825476 110.282043 29.1594524M127.105297 25.9601667L127.105297 16.6035 124.974087 16.6035C124.813791 16.6035 124.678592 16.5482619 124.568965 16.4373095 124.458628 16.3270714 124.403933 16.191119 124.403933 16.0299286 124.403933 15.8289762 124.493908 15.6577857 124.674093 15.5168333L128.756091 11.5025476C128.936277 11.3213571 129.105808 11.230881 129.266341 11.230881 129.426401 11.230881 129.561363 11.2913571 129.6717 11.4118333 129.781326 11.5327857 129.836732 11.6737381 129.836732 11.8344524L129.836732 14.2489762 133.228294 14.2489762C133.568303 14.2489762 133.848408 14.3599286 134.068845 14.581119 134.288809 14.8027857 134.399146 15.0842143 134.399146 15.426119 134.399146 15.7482619 134.288809 16.0251667 134.068845 16.2563571 133.848408 16.4877857 133.568303 16.6035 133.228294 16.6035L129.836732 16.6035 129.836732 25.7187381C129.836732 26.5035 130.021416 27.0013571 130.391969 27.2125476 130.762048 27.4239762 131.22731 27.5294524 131.78752 27.5294524 132.187906 27.5294524 132.587819 27.4692143 132.988442 27.3485 133.068235 27.3287381 133.153474 27.3082619 133.243685 27.2880238 133.333422 27.2682619 133.448258 27.2580238 133.588666 27.2580238 133.868534 27.2580238 134.118805 27.3637381 134.339005 27.5749286 134.558969 27.786119 134.669069 28.0427857 134.669069 28.3446905 134.669069 28.8075476 134.439161 29.1594524 133.978634 29.400881 133.198461 29.7632619 132.368091 29.9442143 131.487763 29.9442143 128.565725 29.9442143 127.105297 28.616119 127.105297 25.9601667M141.992751 28.5708571C140.391443 27.655381 139.15098 26.378 138.270651 24.7377619 137.390086 23.098 136.950158 21.2318095 136.950158 19.1387143 136.950158 17.0060952 137.410211 15.1144286 138.330792 13.4644286 139.251136 11.8149048 140.506989 10.5365714 142.097643 9.63109524 143.688296 8.72561905 145.454163 8.273 147.395243 8.273 148.956062 8.273 150.322016 8.46442857 151.492631 8.84657143 152.663009 9.22895238 153.788637 9.76228571 154.869277 10.4460952 155.029337 10.5268095 155.169271 10.6677619 155.289315 10.8687143 155.409597 11.0701429 155.469738 11.2913333 155.469738 11.5327619 155.469738 11.8751429 155.354429 12.1665714 155.12452 12.408 154.894138 12.6494286 154.588936 12.7701429 154.209149 12.7701429 153.988475 12.7701429 153.778219 12.7201429 153.578617 12.6191905 152.637911 12.0563333 151.697678 11.6337143 150.757208 11.3515714 149.816502 11.0701429 148.795766 10.9289524 147.69571 10.9289524 146.174668 10.9289524 144.803742 11.2510952 143.583642 11.8946667 142.362594 12.5391905 141.407444 13.4794286 140.717009 14.7170476 140.026573 15.9544286 139.681356 17.4287143 139.681356 19.1387143 139.681356 20.7082381 140.006447 22.1118095 140.657105 23.3491905 141.307052 24.5868095 142.247758 25.563 143.478514 26.2770476 144.709269 26.9915714 146.164724 27.3484762 147.845825 27.3484762 149.726291 27.3484762 151.477714 26.9060952 153.098201 26.020619L153.098201 20.5572857 148.145819 20.5572857C147.805337 20.5572857 147.515288 20.4365714 147.275671 20.1951429 147.035345 19.9537143 146.9153 19.6622857 146.9153 19.3199048 146.9153 18.9777619 147.035345 18.6860952 147.275671 18.4446667 147.515288 18.2032381 147.805337 18.0822857 148.145819 18.0822857L154.058797 18.0822857C154.458709 18.0822857 154.798955 18.2234762 155.079533 18.5049048 155.359401 18.7870476 155.499572 19.1289524 155.499572 19.5310952L155.499572 26.3827619C155.499572 26.8051429 155.39468 27.1825238 155.184424 27.5144286 154.974168 27.8465714 154.699036 28.0932381 154.359264 28.2539524 152.117717 29.3810952 149.82692 29.9441905 147.485454 29.9441905 145.424329 29.9441905 143.593349 29.4868095 141.992751 28.5708571M160.782373 29.4009286C160.521921 29.1395 160.392168 28.8175952 160.392168 28.4349762L160.392168 8.84640476C160.392168 8.4642619 160.521921 8.13711905 160.782373 7.86545238 161.042115 7.59378571 161.362235 7.45807143 161.742732 7.45807143 162.142644 7.45807143 162.472945 7.5892619 162.733161 7.85021429 162.99314 8.11211905 163.123603 8.44402381 163.123603 8.84640476L163.123603 28.4349762C163.123603 28.8175952 162.988167 29.1395 162.718244 29.4009286 162.448084 29.6623571 162.122519 29.7933095 161.742732 29.7933095 161.362235 29.7933095 161.042115 29.6623571 160.782373 29.4009286M175.339384 26.8806905C176.159809 26.4480714 176.850008 25.9099762 177.410454 25.2659286L177.410454 22.7304524 174.138699 22.7304524C171.116979 22.7304524 169.606355 23.5256905 169.606355 25.1149762 169.606355 25.8392619 169.85118 26.4233095 170.342015 26.8654524 170.831902 27.3083095 171.647591 27.5295 172.788135 27.5295 173.668227 27.5295 174.518723 27.3135476 175.339384 26.8806905M169.321278 29.4009286C168.570939 29.0385476 167.975214 28.5104524 167.535286 27.8164048 167.095121 27.122119 166.875158 26.3223571 166.875158 25.416881 166.875158 23.9278333 167.460465 22.7406905 168.63108 21.8552143 169.801458 20.9699762 171.516891 20.527119 173.778565 20.527119L177.410454 20.527119 177.410454 20.2856905C177.410454 18.9575952 177.084888 18.002119 176.434941 17.4183095 175.784521 16.8349762 174.76923 16.5430714 173.38836 16.5430714 172.627602 16.5430714 171.95232 16.6033095 171.362277 16.7242619 170.771998 16.8447381 170.116605 17.0259286 169.396099 17.2673571 169.236039 17.3080714 169.106287 17.3275952 169.006131 17.3275952 168.705901 17.3275952 168.445685 17.2173571 168.225721 16.9956905 168.005284 16.7745 167.895657 16.5030714 167.895657 16.1809286 167.895657 15.6375952 168.155162 15.2554524 168.67583 15.0340238 170.376584 14.3095 172.107645 13.9473571 173.868539 13.9473571 175.249173 13.9473571 176.414815 14.2292619 177.365466 14.7923571 178.315407 15.3559286 179.016261 16.0856905 179.466606 16.9806905 179.916715 17.8761667 180.141888 18.8473571 180.141888 19.8933095L180.141888 28.4349762C180.141888 28.8175952 180.00669 29.1395 179.73653 29.4009286 179.466606 29.6623571 179.141278 29.7933095 178.761017 29.7933095 178.380994 29.7933095 178.060401 29.6623571 177.800659 29.4009286 177.540443 29.1395 177.410454 28.8175952 177.410454 28.4349762L177.410454 27.6502143C175.92919 29.1797381 174.048961 29.9442619 171.767636 29.9442619 170.886834 29.9442619 170.071618 29.7630714 169.321278 29.4009286M184.10377 29.2198095C183.743636 28.9381429 183.563687 28.546 183.563687 28.0426667 183.563687 27.5800476 183.72351 27.1674286 184.043866 26.8050476L192.688278 16.8145714 185.094199 16.8145714C184.734302 16.8145714 184.434071 16.6940952 184.193745 16.4524286 183.953655 16.211 183.83361 15.9090952 183.83361 15.5469524 183.83361 15.1848095 183.953655 14.878381 184.193745 14.6264762 184.434071 14.3750476 184.734302 14.2490952 185.094199 14.2490952L194.188957 14.2490952C194.708915 14.2490952 195.12919 14.4102857 195.449783 14.7319524 195.769429 15.0540952 195.929963 15.4669524 195.929963 15.9695714 195.929963 16.4326667 195.789555 16.8348095 195.509687 17.1769524L187.105365 27.0769524 194.819252 27.0769524C195.179386 27.0769524 195.484352 27.2026667 195.734623 27.4540952 195.984658 27.706 196.109911 28.0124286 196.109911 28.3748095 196.109911 28.7369524 195.984658 29.038619 195.734623 29.2800476 195.484352 29.5217143 195.179386 29.6424286 194.819252 29.6424286L185.454334 29.6424286C184.91425 29.6424286 184.463905 29.5019524 184.10377 29.2198095M210.36681 20.6780238C210.306906 19.6925476 210.051663 18.8673095 209.601554 18.2030238 209.151208 17.5389762 208.595972 17.0513571 207.93537 16.7392143 207.275242 16.4273095 206.604458 16.2713571 205.924678 16.2713571 205.244187 16.2713571 204.573878 16.4273095 203.913513 16.7392143 203.253384 17.0513571 202.702646 17.5389762 202.262718 18.2030238 201.82208 18.8673095 201.572283 19.6925476 201.512379 20.6780238L210.36681 20.6780238zM200.807027 27.8465952C199.436101 26.4480238 198.750874 24.481119 198.750874 21.945881 198.750874 20.5173095 199.010616 19.1992143 199.531284 17.9918333 200.051478 16.7844524 200.851777 15.8087381 201.932654 15.0639762 203.013058 14.3199286 204.343732 13.9473095 205.924678 13.9473095 207.404994 13.9473095 208.685946 14.2944524 209.766586 14.9885 210.84699 15.6830238 211.667178 16.6085 212.227861 17.7656429 212.787833 18.9227857 213.068174 20.1851667 213.068174 21.5535 213.068174 21.935881 212.942921 22.2580238 212.693123 22.5192143 212.442615 22.780881 212.108053 22.9115952 211.68754 22.9115952L201.512379 22.9115952C201.672202 24.3204048 202.192396 25.4168333 203.072962 26.2015952 203.953291 26.9863571 205.184046 27.3787381 206.764992 27.3787381 207.605306 27.3787381 208.340728 27.2985 208.971023 27.1370714 209.601554 26.9763571 210.216695 26.7449286 210.817156 26.4430238 210.976979 26.3627857 211.157165 26.3223095 211.357476 26.3223095 211.677122 26.3223095 211.957701 26.4330238 212.197553 26.6542143 212.43788 26.875881 212.557925 27.1575476 212.557925 27.4994524 212.557925 27.9423095 212.297709 28.3142143 211.777752 28.616119 210.997105 29.0589762 210.22664 29.391119 209.466356 29.6120714 208.705598 29.8335 207.725824 29.9442143 206.524902 29.9442143 204.083517 29.9442143 202.177479 29.2451667 200.807027 27.8465952L200.807027 27.8465952z"/>
  </g>
</svg>
