<?xml version="1.0" encoding="UTF-8" standalone="no"?>
<svg width="17px" height="17px" viewBox="0 0 17 17" version="1.1" xmlns="http://www.w3.org/2000/svg" xmlns:xlink="http://www.w3.org/1999/xlink" xmlns:sketch="http://www.bohemiancoding.com/sketch/ns">
    <!-- Generator: Sketch 3.3.3 (12081) - http://www.bohemiancoding.com/sketch -->
    <title>icon-pdfFile</title>
    <desc>Created with Sketch.</desc>
    <defs></defs>
    <g id="Page-1" stroke="none" stroke-width="1" fill="none" fill-rule="evenodd" sketch:type="MSPage">
        <g id="icon-files" sketch:type="MSArtboardGroup" transform="translate(-75.000000, -77.000000)">
            <g id="icon-pdfFile" sketch:type="MSLayerGroup" transform="translate(75.000000, 77.000000)">
                <rect id="Rectangle-1-copy-5" fill="#FFFFFF" sketch:type="MSShapeGroup" x="0" y="0" width="17" height="17" rx="1"></rect>
                <path d="M13.9678755,10.5559999 C13.9892919,10.4819596 14,10.4126268 14,10.348 C14,9.8346641 13.4060787,9.578 12.2182182,9.578 C11.8978963,9.578 11.5108464,9.60366641 11.0570571,9.655 C10.4431067,9.27366476 9.96763599,8.83733579 9.63063063,8.346 C9.29362528,7.85466421 9.00500621,7.21667059 8.76476476,6.432 C8.84484525,5.94799758 8.89155816,5.14867224 8.9049049,4.034 L8.64464464,4.001 C8.61795115,4.13300066 8.5862531,4.32916537 8.54954955,4.5895 C8.512846,4.84983463 8.48448458,5.04599934 8.46446446,5.178 C8.4044041,4.76733128 8.37437437,4.42266806 8.37437437,4.144 C8.37437437,3.78466487 8.41441401,3.5316674 8.49449449,3.385 C8.5945951,3.49500055 8.65131792,3.64533238 8.66466466,3.836 L8.93493493,3.847 C8.95495506,3.75166619 8.96496496,3.64900055 8.96496496,3.539 C8.96496496,3.37033249 8.93326692,3.24566707 8.86986987,3.165 C8.80647282,3.08433293 8.73807177,3.03666674 8.66466466,3.022 C8.59125756,3.00733326 8.47781191,3 8.32432432,3 C8.01067578,3 7.85385385,3.42166245 7.85385385,4.265 C7.85385385,4.96167015 7.96396286,5.70232941 8.18418418,6.487 C7.930596,7.4403381 7.58692242,8.39732853 7.15315315,9.358 C5.96529269,11.9393462 5.08108398,13.328999 4.5005005,13.527 C4.58058098,13.2409986 4.77577422,12.9128352 5.08608609,12.5425 C5.39639795,12.1721648 5.69836356,11.8696678 5.99199199,11.635 L5.84184184,11.393 C5.42809269,11.6350012 5.01768639,11.959498 4.61061061,12.3665 C4.20353483,12.773502 4,13.1639981 4,13.538 C4,13.6406672 4,13.538 4,13.538 C4,13.6406672 4.02669309,13.721333 4.08008008,13.78 C4.10677357,13.7946667 4.14681321,13.8184998 4.2002002,13.8515 C4.25358719,13.8845002 4.29863178,13.9101666 4.33533534,13.9285 C4.37203889,13.9468334 4.41374685,13.9633333 4.46046046,13.978 C4.50717407,13.9926667 4.55388699,14 4.6006006,14 C5.18785746,14 5.97196707,13.0576761 6.95295295,11.173 C8.08075305,10.7329978 9.3787047,10.4323341 10.8468468,10.271 C11.7544256,10.7990026 12.5552184,11.063 13.2492492,11.063 C13.587759,11.063 13.7989577,10.9599176 13.8828491,10.7537502 C13.931309,10.7446207 13.9703592,10.7297852 14,10.7092437 C14,10.654341 13.9892919,10.6032597 13.9678755,10.5559999 Z M7.125,10.7647059 C8.06180558,10.3685454 9.10346183,10.0567572 10.25,9.82933173 C9.5299181,9.2937815 8.95665761,8.52714918 8.53020134,7.52941176 C8.27852223,8.41710461 7.81012647,9.4955252 7.125,10.7647059 C7.125,10.7647059 7.81012647,9.4955252 7.125,10.7647059 Z M13.9678755,10.5559999 C13.96256,10.5743766 13.9565848,10.5930433 13.9499499,10.612 L13.9199199,10.601 C13.9138522,10.6570094 13.9014953,10.7079261 13.8828491,10.7537502 C13.8440804,10.761054 13.7992894,10.7647059 13.7484756,10.7647059 C13.3521322,10.7647059 12.810979,10.5490218 12.125,10.1176471 L12.3422256,10.1176471 C13.2935655,10.1176471 13.8354452,10.2637634 13.9678755,10.5559999 Z" id="icon-acrobatFile" fill="#EB0000" sketch:type="MSShapeGroup"></path>
            </g>
        </g>
    </g>
</svg>