<?xml version="1.0" encoding="UTF-8" standalone="no"?>
<svg width="17px" height="17px" viewBox="0 0 17 17" version="1.1" xmlns="http://www.w3.org/2000/svg" xmlns:xlink="http://www.w3.org/1999/xlink" xmlns:sketch="http://www.bohemiancoding.com/sketch/ns">
    <!-- Generator: Sketch 3.3.3 (12081) - http://www.bohemiancoding.com/sketch -->
    <title>icon-tableFile</title>
    <desc>Created with Sketch.</desc>
    <defs></defs>
    <g id="Page-1" stroke="none" stroke-width="1" fill="none" fill-rule="evenodd" sketch:type="MSPage">
        <g id="icon-files" sketch:type="MSArtboardGroup" transform="translate(-122.000000, -77.000000)">
            <g id="icon-tableFile" sketch:type="MSLayerGroup" transform="translate(122.000000, 77.000000)">
                <rect id="Rectangle-1-copy-3" fill="#FFFFFF" sketch:type="MSShapeGroup" x="0" y="0" width="17" height="17" rx="1"></rect>
                <path d="M13.998455,6.58678716 C13.9985955,6.58155733 14,6.57689289 14,6.57166306 C14,6.42706534 13.9448013,6.29815712 13.8572979,6.19822498 L13.860107,6.19667016 L12.7547276,4.27053818 C12.7159621,4.11350196 12.574805,3.99971783 12.4080851,4.00000053 C12.3964273,4.00000053 12.3854719,4.00226207 12.374095,4.00339285 L12.374095,4.00000053 L4.59795447,4.00000053 L4.59795447,4.00056591 C4.59612855,4.00056591 4.59430264,4.00000053 4.59247673,4.00000053 C4.4576401,3.99985918 4.3454167,4.07477295 4.28768977,4.18587148 L4.28656614,4.18516475 L3.13315117,6.19667016 L3.13525799,6.19780094 C3.05154692,6.29773308 3,6.4266413 3,6.57123902 C3,6.57788231 3.00168546,6.58410157 3.00196637,6.59074487 L3.00196637,13.4052124 C3.00168546,13.411997 3,13.4183576 3,13.4252836 C3,13.7481196 3.2552064,14.0004235 3.57516248,13.9999995 C3.58120204,13.9999995 3.58682023,13.9984447 3.59271933,13.9983033 L13.4062975,13.9983033 C13.412337,13.9984447 13.4179552,13.9999995 13.4239948,13.9999995 C13.7446531,13.9999995 13.9998595,13.7481196 13.9998595,13.425849 C13.9998595,13.4207605 13.998455,13.4162374 13.9983145,13.411149 L13.9983145,6.58678716 L13.998455,6.58678716 Z M10.7330329,9.68120044 L8.96899289,12.0559245 C8.93681849,12.09925 8.88499776,12.1247275 8.82947556,12.125 C8.82947556,12.125 8.82947556,12.125 8.8289061,12.125 C8.77395336,12.125 8.72199027,12.0995225 8.68981587,12.0564695 L6.91438666,9.68147293 C6.87708713,9.63133532 6.87181964,9.56566596 6.90143148,9.51103232 C6.93104332,9.45639868 6.98969755,9.42192907 7.05390399,9.42192907 L7.88431683,9.42192907 L7.8844592,7.28917341 C7.8844592,7.198299 7.96105136,7.125 8.05572384,7.125 L9.59169575,7.125 C9.68636822,7.125 9.76310276,7.19843524 9.76310276,7.28903717 L9.76310276,9.42192907 L10.5930885,9.42192907 C10.6575797,9.42192907 10.7165186,9.45639868 10.745561,9.51075983 C10.7750305,9.56512098 10.7701901,9.63106284 10.7330329,9.68120044 L10.7330329,9.68120044 Z M4.29411765,5.875 L5.04850598,4.625 L12.5981228,4.625 L13.3529412,5.875 L4.29411765,5.875 L4.29411765,5.875 Z" id="Shape" fill="#3B4752" sketch:type="MSShapeGroup"></path>
            </g>
        </g>
    </g>
</svg>