<?xml version="1.0" encoding="UTF-8" standalone="no"?>
<svg width="17px" height="17px" viewBox="0 0 17 17" version="1.1" xmlns="http://www.w3.org/2000/svg" xmlns:xlink="http://www.w3.org/1999/xlink" xmlns:sketch="http://www.bohemiancoding.com/sketch/ns">
    <!-- Generator: Sketch 3.3.3 (12081) - http://www.bohemiancoding.com/sketch -->
    <title>icon-codeFile</title>
    <desc>Created with Sketch.</desc>
    <defs></defs>
    <g id="Page-1" stroke="none" stroke-width="1" fill="none" fill-rule="evenodd" sketch:type="MSPage">
        <g id="icon-files" sketch:type="MSArtboardGroup" transform="translate(-216.000000, -30.000000)">
            <g id="icon-codeFile" sketch:type="MSLayerGroup" transform="translate(216.000000, 30.000000)">
                <rect id="Rectangle-1-copy-6" fill="#FFFFFF" sketch:type="MSShapeGroup" x="0" y="0" width="17" height="17" rx="1"></rect>
                <path d="M7.02288949,12.883 L7,13 L8.52325868,13 L9.97711051,4.117 L10,4 L8.47674132,4 L7.02288949,12.883 Z M5.6814,6.24641834 L3.2814,8.03724928 L3,8.23853868 L3,9.76146132 L3.2814,9.96275072 L5.6814,11.7535817 L6,12 L6,10.2987106 L4.2564,9 L6,7.7012894 L6,6 L5.6814,6.24641834 Z M11,7.7012894 L12.7436,9 L11,10.2987106 L11,12 L11.3186,11.7535817 L13.7186,9.96275072 L14,9.76146132 L14,8.23853868 L13.7186,8.03724928 L11.3186,6.24641834 L11,6 L11,7.7012894 Z" id="Shape" fill="#3B4752" sketch:type="MSShapeGroup"></path>
            </g>
        </g>
    </g>
</svg>