<?xml version="1.0" encoding="UTF-8" standalone="no"?>
<svg width="17px" height="17px" viewBox="0 0 17 17" version="1.1" xmlns="http://www.w3.org/2000/svg" xmlns:xlink="http://www.w3.org/1999/xlink" xmlns:sketch="http://www.bohemiancoding.com/sketch/ns">
    <!-- Generator: Sketch 3.3.3 (12081) - http://www.bohemiancoding.com/sketch -->
    <title>icon-htmlFile</title>
    <desc>Created with Sketch.</desc>
    <defs></defs>
    <g id="Page-1" stroke="none" stroke-width="1" fill="none" fill-rule="evenodd" sketch:type="MSPage">
        <g id="icon-files" sketch:type="MSArtboardGroup" transform="translate(-122.000000, -30.000000)">
            <g id="icon-htmlFile" sketch:type="MSLayerGroup" transform="translate(122.000000, 30.000000)">
                <rect id="Rectangle-1-copy-8" fill="#FFFFFF" sketch:type="MSShapeGroup" x="0" y="0" width="17" height="17" rx="1"></rect>
                <path d="M8,11.0303756 C8.16259756,11.0303756 8.30893902,11.0814436 8.43902439,11.1835686 C8.69918293,11.431599 8.69918293,11.686917 8.43902439,11.9495336 L7.92682927,12.387228 C7.47154878,12.795739 6.93496341,13 6.31707317,13 C5.68292683,13 5.13820732,12.795739 4.68292683,12.387228 C4.22764634,11.9787169 4,11.4972532 4,10.9428367 C4,10.3738341 4.22764634,9.8850718 4.68292683,9.47656075 L6.48780488,7.85709178 C7.05691463,7.36104187 7.64228049,7.08018437 8.24390244,7.01453022 C8.84552439,6.94887607 9.36585366,7.10571289 9.80487805,7.48505161 C9.93496341,7.60177374 10,7.73308204 10,7.87897649 C10,8.02487095 9.93496341,8.15617925 9.80487805,8.27290138 C9.51219512,8.5063347 9.22764634,8.5063347 8.95121951,8.27290138 C8.54471951,7.92274593 8.00813415,8.04675567 7.34146341,8.64494155 L5.53658537,10.2425258 C5.32520732,10.4321897 5.2195122,10.665634 5.2195122,10.9428367 C5.2195122,11.2200395 5.32520732,11.4461852 5.53658537,11.6212629 C5.74796341,11.8109268 6.00406098,11.9057642 6.30487805,11.9057642 C6.60569512,11.9057642 6.86179268,11.8109268 7.07317073,11.6212629 L7.58536585,11.1835686 M13,6.0801058 C13,6.64009069 12.7714245,7.12110693 12.3142857,7.52314377 L10.3795918,9.22463631 C9.77551429,9.74154544 9.16326939,10 8.54285714,10 C8.03673878,10 7.57958776,9.82051408 7.17142857,9.46155299 C7.05714694,9.36104648 7,9.23899131 7,9.09540903 C7,8.95182675 7.05714694,8.82259947 7.17142857,8.70772719 C7.2857102,8.60722067 7.42857143,8.55696203 7.6,8.55696203 C7.77142857,8.55696203 7.9142898,8.60722067 8.02857143,8.70772719 C8.43673061,9.05233327 8.93469388,8.96618175 9.52244898,8.44927262 L11.4571429,6.76931797 C11.6857184,6.56829416 11.8,6.33856036 11.8,6.0801058 C11.8,5.80729624 11.6857184,5.58473456 11.4571429,5.41243151 C11.2612245,5.22577347 11.032649,5.11448725 10.7714286,5.07859437 C10.5102082,5.04270149 10.2653102,5.11808407 10.0367347,5.30474211 L9.4244898,5.84318912 C9.29387347,5.94369564 9.14693469,5.99395428 8.98367347,5.99395428 C8.82041224,5.99395428 8.68162857,5.94369564 8.56734694,5.84318912 C8.28979184,5.59908955 8.28979184,5.34781787 8.56734694,5.08936331 L9.17959184,4.5509163 C9.62040816,4.16323446 10.1387714,3.98016248 10.7346939,4.00170036 C11.3306163,4.02323824 11.8571469,4.2422031 12.3142857,4.65860571" id="Shape-copy" fill="#48B0F7" sketch:type="MSShapeGroup"></path>
            </g>
        </g>
    </g>
</svg>