<svg xmlns="http://www.w3.org/2000/svg" width="53" height="40" viewBox="0 0 53 40"><path fill="#40A1E7" d="M52.428 23.705c0 .577-.289 1.191-.865 1.842l-9.375 11.049c-.8.949-1.92 1.754-3.362 2.414-1.442.66-2.777.99-4.005.99h-30.357c-.632 0-1.195-.121-1.688-.363-.493-.241-.74-.641-.74-1.199 0-.576.289-1.19.865-1.842l9.375-11.049c.8-.949 1.92-1.753 3.362-2.414 1.441-.66 2.776-.99 4.004-.99h30.358c.633 0 1.195.121 1.688.363.494.242.74.641.74 1.199zm-9.571-9.598v4.464h-23.214c-1.749 0-3.581.442-5.497 1.326-1.916.883-3.441 1.995-4.576 3.333l-9.403 11.05-.14.167-.014-.349-.013-.348v-26.786c0-1.711.614-3.181 1.841-4.409 1.228-1.227 2.698-1.841 4.409-1.841h8.929c1.711 0 3.181.614 4.408 1.841 1.228 1.228 1.842 2.697 1.842 4.409v.893h15.179c1.711 0 3.181.614 4.408 1.842 1.227 1.227 1.841 2.697 1.841 4.408z"/></svg>