<svg xmlns="http://www.w3.org/2000/svg" xmlns:xlink="http://www.w3.org/1999/xlink" width="307" height="257" viewBox="0 0 307 257">
  <defs>
    <rect id="computer---magnet-link-a" width="262" height="62" x="25" y="50" rx="6"/>
  </defs>
  <g fill="none" fill-rule="evenodd">
    <path fill="#FFF" fill-rule="nonzero" d="M12.7938652,211.755991 C9.26636328,211.755991 6.39483398,208.885157 6.39483398,205.357411 L6.39483398,13.208479 C6.39483398,9.67592991 9.26636328,6.80509579 12.7938652,6.80509579 L294.200738,6.80509579 C297.733037,6.80509579 300.609363,9.67592991 300.609363,13.208479 L300.609363,205.357411 C300.609363,208.885157 297.733037,211.755991 294.200738,211.755991 L12.7938652,211.755991 L12.7938652,211.755991 Z"/>
    <use fill="#FFF" xlink:href="#computer---magnet-link-a"/>
    <rect width="259" height="59" x="26.5" y="51.5" stroke="#80D440" stroke-opacity=".5" stroke-width="3" rx="6"/>
    <rect width="129" height="62" x="25" y="122" fill="#F3F3F3" rx="6"/>
    <rect width="122" height="62" x="165" y="120" fill="#F3F3F3" rx="6"/>
    <rect width="122" height="6" x="25" y="34" fill="#F3F3F3" rx="3"/>
    <rect width="122" height="6" x="25" y="24" fill="#F3F3F3" rx="3"/>
    <rect width="122" height="6" x="165" y="24" fill="#F3F3F3" rx="3"/>
    <rect width="122" height="6" x="165" y="34" fill="#F3F3F3" rx="3"/>
    <rect width="122" height="6" x="165" y="14" fill="#F3F3F3" rx="3"/>
    <rect width="122" height="6" x="25" y="14" fill="#F3F3F3" rx="3"/>
    <path fill="#E6E9ED" fill-rule="nonzero" d="M294.200738,0.396908879 L12.7938652,0.396908879 C5.72986719,0.396908879 0.00119921875,6.13437383 0.00119921875,13.208479 L0.00119921875,205.357411 C0.00119921875,212.430916 5.72986719,218.173185 12.7938652,218.173185 L294.200738,218.173185 C301.264736,218.173185 306.998801,212.431516 306.998801,205.357411 L306.998801,13.208479 C306.998801,6.13437383 301.265336,0.396908879 294.200738,0.396908879 Z M294.200738,205.357411 L12.7938652,205.357411 L12.7938652,13.208479 L294.200738,13.208479 L294.200738,205.357411 Z"/>
    <polygon fill="#CCD1D9" fill-rule="nonzero" points="204.673 256.603 102.332 256.603 115.088 205.414 191.894 205.395"/>
    <rect width="287.881" height="36.647" x="9.561" y="179.744" fill="#E6E9ED" fill-rule="nonzero"/>
    <path fill="#434A54" fill-rule="nonzero" d="M159.894234,198.958832 C159.894234,202.486577 157.032299,205.357411 153.5,205.357411 C149.967701,205.357411 147.105766,202.486577 147.105766,198.958832 C147.105766,195.412472 149.967701,192.541037 153.5,192.541037 C157.032299,192.541037 159.894234,195.412472 159.894234,198.958832 Z"/>
    <path fill="#E6E9ED" fill-rule="nonzero" d="M204.673063,243.786717 L102.332334,243.786717 C98.8000352,243.786717 95.9380996,246.657551 95.9380996,250.185297 C95.9380996,253.731657 98.8000352,256.603091 102.332334,256.603091 L204.673063,256.603091 C208.195768,256.603091 211.061301,253.732257 211.061301,250.185297 C211.061301,246.657551 208.195768,243.786717 204.673063,243.786717 Z"/>
    <polygon fill="#FFF" fill-rule="nonzero" points="190.282 179.744 153.5 179.744 191.875 13.208 228.656 13.208" opacity=".1"/>
    <g transform="translate(87 64)">
      <g fill-rule="nonzero" transform="rotate(135 16.508 18.85)">
        <path fill="#DA4453" d="M23.5316491,10.3335535 L13.4819174,20.2787609 C12.1437262,21.605273 9.96434394,21.605273 8.62615273,20.2787609 C7.28590088,18.9542247 7.28590088,16.797081 8.62615273,15.4724811 L18.6737593,5.52536149 L13.3310401,0.238052133 L3.28330471,10.1841519 L3.28330471,10.1841519 C-1.00906868,14.4327256 -1.00906868,21.3194725 3.28330471,25.5669626 C7.57567811,29.8155363 14.5343883,29.8155363 18.8247011,25.5669626 L28.8744327,15.6218189 L23.5316491,10.3335535 Z"/>
        <polygon fill="#CCD1D9" points="8.475 5.045 13.818 10.334 18.674 5.525 13.331 .238"/>
        <polygon fill="#CCD1D9" points="28.874 15.622 23.532 10.334 18.674 15.14 24.017 20.428"/>
      </g>
      <path fill="#3B4751" d="M59.0989517,10.887 L59.0989517,13.299 L55.4089517,13.299 L55.4089517,24 L52.3669517,24 L52.3669517,13.299 L48.6769517,13.299 L48.6769517,10.887 L59.0989517,10.887 Z M72.7609517,17.439 C72.7609517,18.3870047 72.5974533,19.2689959 72.2704517,20.085 C71.94345,20.9010041 71.4829546,21.610497 70.8889517,22.2135 C70.2949487,22.816503 69.5794559,23.2889983 68.7424517,23.631 C67.9054475,23.9730017 66.9769568,24.144 65.9569517,24.144 C64.9369466,24.144 64.0069559,23.9730017 63.1669517,23.631 C62.3269475,23.2889983 61.6084547,22.816503 61.0114517,22.2135 C60.4144487,21.610497 59.9524533,20.9010041 59.6254517,20.085 C59.29845,19.2689959 59.1349517,18.3870047 59.1349517,17.439 C59.1349517,16.4909953 59.29845,15.6090041 59.6254517,14.793 C59.9524533,13.9769959 60.4144487,13.269003 61.0114517,12.669 C61.6084547,12.068997 62.3269475,11.5980017 63.1669517,11.256 C64.0069559,10.9139983 64.9369466,10.743 65.9569517,10.743 C66.9769568,10.743 67.9054475,10.9154983 68.7424517,11.2605 C69.5794559,11.6055017 70.2949487,12.077997 70.8889517,12.678 C71.4829546,13.278003 71.94345,13.9859959 72.2704517,14.802 C72.5974533,15.6180041 72.7609517,16.4969953 72.7609517,17.439 Z M69.6469517,17.439 C69.6469517,16.7909968 69.5629525,16.2075026 69.3949517,15.6885 C69.2269508,15.1694974 68.9854532,14.7300018 68.6704517,14.37 C68.3554501,14.0099982 67.969954,13.734001 67.5139517,13.542 C67.0579494,13.349999 66.5389546,13.254 65.9569517,13.254 C65.3689487,13.254 64.845454,13.349999 64.3864517,13.542 C63.9274494,13.734001 63.5404532,14.0099982 63.2254517,14.37 C62.9104501,14.7300018 62.6689525,15.1694974 62.5009517,15.6885 C62.3329508,16.2075026 62.2489517,16.7909968 62.2489517,17.439 C62.2489517,18.0930033 62.3329508,18.6794974 62.5009517,19.1985 C62.6689525,19.7175026 62.9104501,20.1569982 63.2254517,20.517 C63.5404532,20.8770018 63.9274494,21.1514991 64.3864517,21.3405 C64.845454,21.5295009 65.3689487,21.624 65.9569517,21.624 C66.5389546,21.624 67.0579494,21.5295009 67.5139517,21.3405 C67.969954,21.1514991 68.3554501,20.8770018 68.6704517,20.517 C68.9854532,20.1569982 69.2269508,19.7175026 69.3949517,19.1985 C69.5629525,18.6794974 69.6469517,18.0930033 69.6469517,17.439 Z M77.2609517,19.149 L77.2609517,24 L74.2189517,24 L74.2189517,10.887 L78.4849517,10.887 C79.4329564,10.887 80.2414483,10.984499 80.9104517,11.1795 C81.579455,11.374501 82.1254496,11.6459983 82.5484517,11.994 C82.9714538,12.3420017 83.2789507,12.7529976 83.4709517,13.227 C83.6629526,13.7010024 83.7589517,14.2169972 83.7589517,14.775 C83.7589517,15.2010021 83.7019522,15.6029981 83.5879517,15.981 C83.4739511,16.3590019 83.3044528,16.7084984 83.0794517,17.0295 C82.8544505,17.3505016 82.5784533,17.6369987 82.2514517,17.889 C81.92445,18.1410013 81.5479538,18.3479992 81.1219517,18.51 C81.3259527,18.6120005 81.5164508,18.7379993 81.6934517,18.888 C81.8704526,19.0380008 82.024951,19.2209989 82.1569517,19.437 L84.9469517,24 L82.1929517,24 C81.6829491,24 81.3169528,23.8080019 81.0949517,23.424 L78.9169517,19.617 C78.8209512,19.4489992 78.7084523,19.3290004 78.5794517,19.257 C78.450451,19.1849996 78.2689528,19.149 78.0349517,19.149 L77.2609517,19.149 Z M77.2609517,17.052 L78.4849517,17.052 C78.8989537,17.052 79.2514502,16.9995005 79.5424517,16.8945 C79.8334531,16.7894995 80.0719507,16.6440009 80.2579517,16.458 C80.4439526,16.2719991 80.5789513,16.0545012 80.6629517,15.8055 C80.7469521,15.5564988 80.7889517,15.2880014 80.7889517,15 C80.7889517,14.4239971 80.6014535,13.9740016 80.2264517,13.65 C79.8514498,13.3259984 79.2709556,13.164 78.4849517,13.164 L77.2609517,13.164 L77.2609517,17.052 Z M89.2309517,19.149 L89.2309517,24 L86.1889517,24 L86.1889517,10.887 L90.4549517,10.887 C91.4029564,10.887 92.2114483,10.984499 92.8804517,11.1795 C93.549455,11.374501 94.0954496,11.6459983 94.5184517,11.994 C94.9414538,12.3420017 95.2489507,12.7529976 95.4409517,13.227 C95.6329526,13.7010024 95.7289517,14.2169972 95.7289517,14.775 C95.7289517,15.2010021 95.6719522,15.6029981 95.5579517,15.981 C95.4439511,16.3590019 95.2744528,16.7084984 95.0494517,17.0295 C94.8244505,17.3505016 94.5484533,17.6369987 94.2214517,17.889 C93.89445,18.1410013 93.5179538,18.3479992 93.0919517,18.51 C93.2959527,18.6120005 93.4864508,18.7379993 93.6634517,18.888 C93.8404526,19.0380008 93.994951,19.2209989 94.1269517,19.437 L96.9169517,24 L94.1629517,24 C93.6529491,24 93.2869528,23.8080019 93.0649517,23.424 L90.8869517,19.617 C90.7909512,19.4489992 90.6784523,19.3290004 90.5494517,19.257 C90.420451,19.1849996 90.2389528,19.149 90.0049517,19.149 L89.2309517,19.149 Z M89.2309517,17.052 L90.4549517,17.052 C90.8689537,17.052 91.2214502,16.9995005 91.5124517,16.8945 C91.8034531,16.7894995 92.0419507,16.6440009 92.2279517,16.458 C92.4139526,16.2719991 92.5489513,16.0545012 92.6329517,15.8055 C92.7169521,15.5564988 92.7589517,15.2880014 92.7589517,15 C92.7589517,14.4239971 92.5714535,13.9740016 92.1964517,13.65 C91.8214498,13.3259984 91.2409556,13.164 90.4549517,13.164 L89.2309517,13.164 L89.2309517,17.052 Z M106.600952,10.887 L106.600952,13.227 L101.218952,13.227 L101.218952,16.287 L105.340952,16.287 L105.340952,18.537 L101.218952,18.537 L101.218952,21.66 L106.600952,21.66 L106.600952,24 L98.1589517,24 L98.1589517,10.887 L106.600952,10.887 Z M109.930952,10.887 C110.062952,10.887 110.173951,10.8929999 110.263952,10.905 C110.353952,10.9170001 110.434951,10.9394998 110.506952,10.9725 C110.578952,11.0055002 110.647951,11.0519997 110.713952,11.112 C110.779952,11.1720003 110.854951,11.2529995 110.938952,11.355 L117.166952,19.23 C117.142952,18.9779987 117.124952,18.7335012 117.112952,18.4965 C117.100952,18.2594988 117.094952,18.036001 117.094952,17.826 L117.094952,10.887 L119.776952,10.887 L119.776952,24 L118.192952,24 C117.958951,24 117.760952,23.9640004 117.598952,23.892 C117.436951,23.8199996 117.280952,23.688001 117.130952,23.496 L110.947952,15.684 C110.965952,15.9120011 110.980952,16.1354989 110.992952,16.3545 C111.004952,16.5735011 111.010952,16.778999 111.010952,16.971 L111.010952,24 L108.328952,24 L108.328952,10.887 L109.930952,10.887 Z M131.458952,10.887 L131.458952,13.299 L127.768952,13.299 L127.768952,24 L124.726952,24 L124.726952,13.299 L121.036952,13.299 L121.036952,10.887 L131.458952,10.887 Z"/>
    </g>
    <g fill="#3D324C" fill-rule="nonzero" transform="translate(116 90)">
      <path d="M30.5017197,28.0994848 L18.9524919,16.5500987 L29.9681818,11.0430278 L0,0 L11.0428765,29.9702916 L16.5498719,18.9527516 L28.0990997,30.5021377 C28.430437,30.8351787 28.8654234,31 29.3004097,31 C29.7353961,31 30.1703824,30.8351787 30.5017197,30.5021377 C31.1660934,29.8394541 31.1660934,28.7638676 30.5017197,28.0994848"/>
    </g>
  </g>
</svg>
