<svg xmlns="http://www.w3.org/2000/svg" xmlns:xlink="http://www.w3.org/1999/xlink" width="307" height="257" viewBox="0 0 307 257"><defs><path id="a" d="M73 98h149v24h-149z"/><path id="b" d="M0 0h77v24h-77z"/></defs><g fill="none"><path fill="#FFF" fill-rule="nonzero" d="M12.794 211.756c-3.528 0-6.399-2.871-6.399-6.399v-192.149c0-3.533 2.872-6.403 6.399-6.403h281.407c3.532 0 6.409 2.871 6.409 6.403v192.149c0 3.528-2.876 6.399-6.409 6.399h-281.407z"/><rect width="60" height="179" x="12" y="5" fill="#242536" rx="6"/><path fill="#F3F3F3" d="M145 10h4v172h-4z"/><path fill="#E6E9ED" fill-rule="nonzero" d="M294.201.397h-281.407c-7.064 0-12.793 5.737-12.793 12.812v192.149c0 7.074 5.729 12.816 12.793 12.816h281.407c7.064 0 12.798-5.742 12.798-12.816v-192.149c0-7.074-5.733-12.812-12.798-12.812zm0 204.961h-281.407v-192.149h281.407v192.149z"/><path fill="#CCD1D9" fill-rule="nonzero" d="M204.673 256.603h-102.341l12.756-51.189 76.806-.019z"/><path fill="#E6E9ED" fill-rule="nonzero" d="M9.561 179.744h287.881v36.647h-287.881z"/><path fill="#434A54" fill-rule="nonzero" d="M159.894 198.959c0 3.528-2.862 6.399-6.394 6.399s-6.394-2.871-6.394-6.399c0-3.546 2.862-6.418 6.394-6.418s6.394 2.871 6.394 6.418z"/><path fill="#E6E9ED" fill-rule="nonzero" d="M204.673 243.787h-102.341c-3.532 0-6.394 2.871-6.394 6.399 0 3.546 2.862 6.418 6.394 6.418h102.341c3.523 0 6.388-2.871 6.388-6.418 0-3.528-2.866-6.399-6.388-6.399z"/><path fill="#FFF" fill-rule="nonzero" opacity=".1" d="M190.282 179.744h-36.782l38.375-166.536h36.781z"/><g transform="translate(72 13)"><use fill="#FEF6DC" xlink:href="#a"/><path stroke="#F3F3F3" stroke-width="4" d="M75 100h145v20h-145zM75 100h145v66h-145z"/><path fill="#48B0F7" d="M77 0h145v98h-145z"/><g fill-rule="nonzero"><path fill="#E6E9ED" d="M173.999 69.594c0 2.396-1.941 4.338-4.334 4.338h-43.333c-2.393 0-4.332-1.942-4.332-4.338v-41.19c0-2.395 1.939-4.336 4.332-4.336h43.333c2.393 0 4.334 1.941 4.334 4.336v41.19z"/><path fill="#F5F7FA" d="M169.666 24.068h-43.333c-2.393 0-4.332 1.941-4.332 4.336v41.19c0 2.396 1.939 4.338 4.332 4.338h43.333c2.393 0 4.334-1.942 4.334-4.338v-41.19c0-2.395-1.941-4.336-4.334-4.336zm2.166 45.526c0 1.197-.971 2.169-2.166 2.169h-43.333c-1.195 0-2.166-.972-2.166-2.169v-41.19c0-1.196.971-2.168 2.166-2.168h43.333c1.195 0 2.166.973 2.166 2.168v41.19z"/><path fill="#ED5564" d="M137.167 28.404c-5.384 0-9.75 4.367-9.75 9.756 0 5.388 4.365 9.756 9.75 9.756 5.384 0 9.75-4.368 9.75-9.756s-4.366-9.756-9.75-9.756zm0 11.923c-1.197 0-2.166-.97-2.166-2.167 0-1.197.97-2.168 2.166-2.168 1.197 0 2.166.971 2.166 2.168s-.97 2.167-2.166 2.167z"/><path fill="#48CFAD" d="M158.832 28.404c-5.384 0-9.75 4.367-9.75 9.756 0 5.388 4.365 9.756 9.75 9.756 5.384 0 9.75-4.368 9.75-9.756s-4.365-9.756-9.75-9.756zm0 11.923c-1.196 0-2.166-.97-2.166-2.167 0-1.197.97-2.168 2.166-2.168 1.197 0 2.168.971 2.168 2.168s-.971 2.167-2.168 2.167z"/><path fill="#A0D468" d="M137.167 50.083c-5.384 0-9.75 4.369-9.75 9.755 0 5.389 4.365 9.756 9.75 9.756 5.384 0 9.75-4.367 9.75-9.756 0-5.386-4.366-9.755-9.75-9.755zm0 11.924c-1.197 0-2.166-.972-2.166-2.169-.002-1.197.97-2.166 2.166-2.166 1.197 0 2.166.969 2.166 2.166s-.97 2.169-2.166 2.169z"/><path fill="#FFCE54" d="M165.727 52.941c-3.808-3.809-9.981-3.809-13.788 0-3.808 3.811-3.808 9.988 0 13.797 3.807 3.809 9.98 3.809 13.788 0 3.807-3.809 3.807-9.986 0-13.797zm-5.362 8.432c-.847.848-2.218.848-3.064 0-.846-.846-.846-2.22 0-3.066.846-.846 2.217-.846 3.064 0 .846.846.846 2.22 0 3.066z"/><path fill="#DA4453" d="M137.933 31.974c-.213-.212-.489-.318-.766-.318-3.59 0-6.5 2.911-6.5 6.503 0 .277.105.555.317.767.422.423 1.109.423 1.531 0 .213-.211.317-.489.317-.766 0-2.391 1.944-4.336 4.334-4.336.278 0 .554-.106.766-.318.422-.423.422-1.109 0-1.532z"/><path d="M153.733 37.393c-.424.423-.424 1.11 0 1.533.422.423 1.109.423 1.531 0 .424-.423.424-1.11 0-1.533-.422-.423-1.109-.423-1.531 0zm8.666 0c-.422.423-.422 1.11 0 1.533.424.423 1.109.423 1.533 0 .422-.423.422-1.11 0-1.533-.424-.423-1.109-.423-1.533 0zm-4.967 3.252c-.424-.423-1.109-.423-1.533 0-.422.423-.422 1.11 0 1.533.424.423 1.109.423 1.533 0 .422-.423.422-1.11 0-1.533zm2.801 0c-.424.423-.424 1.11 0 1.533.422.423 1.109.423 1.531 0 .424-.423.424-1.11 0-1.533-.422-.423-1.109-.423-1.531 0zm4.332 0c-.422.424-.422 1.11 0 1.533.424.423 1.109.423 1.533 0 .422-.423.422-1.109 0-1.533-.424-.423-1.109-.423-1.533 0zm-13 0c-.422.424-.422 1.11 0 1.533.424.423 1.109.423 1.533 0 .422-.423.422-1.109 0-1.533-.424-.423-1.109-.423-1.533 0zm5.867-4.971c.422-.423.422-1.109 0-1.533-.424-.423-1.109-.423-1.533 0-.422.424-.422 1.11 0 1.533.424.423 1.109.423 1.533 0zm2.801-1.533c-.424.424-.424 1.11 0 1.533.422.423 1.109.423 1.531 0 .424-.423.424-1.109 0-1.533-.422-.423-1.109-.423-1.531 0zm5.865 1.533c.422-.423.422-1.109 0-1.532-.424-.424-1.109-.424-1.533 0-.422.423-.422 1.109 0 1.532.424.424 1.109.424 1.533 0zm-14.532-1.532c-.422.423-.422 1.109 0 1.532.424.424 1.109.424 1.533 0 .422-.423.422-1.109 0-1.532-.424-.424-1.109-.424-1.533 0zm2.168 9.755c-.424.424-.424 1.11 0 1.533.422.423 1.109.423 1.531 0 .424-.423.424-1.109 0-1.533-.422-.423-1.109-.423-1.531 0zm4.332 0c-.422.424-.422 1.11 0 1.533.424.423 1.109.423 1.533 0 .422-.423.422-1.109 0-1.533-.424-.423-1.109-.423-1.533 0zm4.334 0c-.422.424-.422 1.11 0 1.533.424.423 1.109.423 1.533 0 .422-.423.422-1.109 0-1.533-.424-.423-1.109-.423-1.533 0zm-2.801-11.475c.422-.423.422-1.11 0-1.533-.424-.423-1.109-.423-1.533 0-.422.423-.422 1.11 0 1.533.424.423 1.109.423 1.533 0zm4.334 0c.422-.423.422-1.11 0-1.533-.424-.423-1.109-.423-1.533 0-.424.423-.424 1.11 0 1.533.424.423 1.109.423 1.533 0zm-10.199-1.533c-.424.423-.424 1.11 0 1.533.422.423 1.109.423 1.531 0 .424-.423.424-1.11 0-1.533-.422-.423-1.109-.423-1.531 0z" fill="#5D9CEC"/><g fill="#4FC2E9"><path d="M137.726 57.746l-2.022-7.552c-.727.11-1.428.299-2.093.56l2.022 7.553c.392-.392.935-.634 1.533-.634.194 0 .382.025.56.073zM143.252 52.217l-5.526 5.529c.746.2 1.333.788 1.533 1.532l5.524-5.527c-.452-.565-.966-1.08-1.531-1.534zm-7.619 6.089l-7.549-2.024c-.26.667-.451 1.369-.559 2.096l7.547 2.023c-.048-.178-.073-.367-.073-.562 0-.597.241-1.14.633-1.532zm-4.553 9.156l5.524-5.527c-.744-.2-1.331-.788-1.531-1.534l-5.524 5.529c.452.565.966 1.08 1.531 1.532zm9.64 1.466l-2.023-7.555 7.55 2.025c.26-.665.449-1.367.559-2.094l-7.547-2.023c.048.178.073.365.073.559 0 1.197-.97 2.169-2.166 2.169-.194 0-.382-.025-.56-.073l2.022 7.552c.727-.11 1.428-.299 2.093-.559z"/></g><path fill="#ED5564" d="M168.394 61.744l-11.465-11.473c-.789.156-1.562.412-2.301.764l13.003 13.011c.352-.74.608-1.513.763-2.302zM160.925 60.4c-.095.356-.281.692-.56.972-.279.279-.616.467-.973.562l5.526 5.527c.279-.224.549-.465.809-.724.259-.259.5-.529.722-.808l-5.524-5.529zm-4.184-1.121c.094-.357.281-.694.56-.973.279-.278.616-.465.971-.561l-5.526-5.529c-.279.226-.549.465-.808.724-.26.26-.5.53-.724.81l5.526 5.529zM149.27 57.936l11.465 11.472c.789-.157 1.563-.411 2.301-.764l-13.003-13.011c-.352.738-.608 1.512-.763 2.302z"/></g><path fill="#3D324C" fill-rule="nonzero" d="M192.502 138.099l-11.549-11.549 11.016-5.507-29.968-11.043 11.043 29.97 5.507-11.018 11.549 11.549c.331.333.766.498 1.201.498.435 0 .87-.165 1.201-.498.664-.663.664-1.738 0-2.403"/><path fill="#E2F3FB" fill-rule="nonzero" stroke="#1565C0" stroke-linecap="round" stroke-width="3.5" d="M96 87h117"/><circle cx="131" cy="87" r="5" fill="#FFF" fill-rule="nonzero" stroke="#1565C0" stroke-width="3.5"/><path fill="#00D0BD" fill-rule="nonzero" d="M91.002 108.881v-1.381c0-.276-.224-.5-.501-.5h-6c-.278 0-.501.224-.501.5v5c0 .276.224.5.501.5h6c.278 0 .501-.224.501-.5v-1.37l2.553 1.304c.246.126.445.004.445-.272v-4.314c0-.277-.199-.398-.445-.272l-2.553 1.304z"/><g transform="translate(0 16)"><use fill="#FEF6DC" xlink:href="#b"/><path stroke="#F3F3F3" stroke-width="4" d="M2 2h73v20h-73z"/><rect width="47" height="5" x="16" y="9" fill="#3B4751" opacity=".315" rx="2.5"/><rect width="47" height="6" x="101" y="91" fill="#3B4751" opacity=".315" rx="3"/></g></g><g transform="translate(72 49)"><path stroke="#F3F3F3" stroke-width="4" d="M2 2h73v20h-73z"/><rect width="47" height="5" x="16" y="9" fill="#3B4751" opacity=".315" rx="2.5"/><g transform="translate(0 20)"><path stroke="#F3F3F3" stroke-width="4" d="M2 2h73v20h-73z"/><rect width="47" height="5" x="16" y="9" fill="#3B4751" opacity=".315" rx="2.5"/></g></g></g></svg>