<?xml version="1.0" encoding="UTF-8"?>
<svg width="21px" height="25px" viewBox="0 0 21 25" version="1.1" xmlns="http://www.w3.org/2000/svg" xmlns:xlink="http://www.w3.org/1999/xlink">
    <!-- Generator: Sketch 43.1 (39012) - http://www.bohemiancoding.com/sketch -->
    <title>steam</title>
    <desc>Created with Sketch.</desc>
    <defs></defs>
    <g id="App-view" stroke="none" stroke-width="1" fill="none" fill-rule="evenodd">
        <g id="Dragging-a-torrent-in" transform="translate(-579.000000, -326.000000)" fill="#686868">
            <g id="Popups">
                <g id="Drop-it">
                    <g id="hot-donut" transform="translate(574.000000, 326.000000)">
                        <g id="steam" transform="translate(5.000000, 0.000000)">
                            <path d="M12.796875,24.6794872 C12.6,24.6794872 12.403125,24.6153846 12.20625,24.5512821 C12.009375,24.4230769 7.021875,21.5384615 7.021875,17.1153846 C7.021875,14.1666667 8.79375,12.3076923 10.2375,10.7692308 C11.353125,9.55128205 12.3375,8.52564103 12.3375,7.24358974 C12.3375,4.23076923 10.040625,2.62820513 9.909375,2.56410256 C9.384375,2.17948718 9.253125,1.47435897 9.58125,0.961538462 C9.975,0.448717949 10.696875,0.320512821 11.221875,0.641025641 C11.353125,0.705128205 14.7,2.94871795 14.7,7.24358974 C14.7,9.42307692 13.321875,10.8974359 11.94375,12.3076923 C10.63125,13.7179487 9.31875,15.0641026 9.31875,17.0512821 C9.31875,20.1282051 13.321875,22.5 13.3875,22.5 C13.9125,22.8205128 14.109375,23.525641 13.78125,24.0384615 C13.584375,24.4871795 13.190625,24.6794872 12.796875,24.6794872 L12.796875,24.6794872 Z" id="Shape"></path>
                            <path d="M19.425,23.525641 C19.228125,23.525641 19.03125,23.4615385 18.9,23.3974359 C18.703125,23.2692308 14.240625,20.8974359 14.109375,17.3076923 C14.04375,14.8717949 15.35625,13.6538462 16.40625,12.6282051 C17.45625,11.6025641 18.24375,10.8333333 17.915625,8.91025641 C17.784375,8.26923077 18.24375,7.69230769 18.834375,7.56410256 C19.425,7.43589744 20.08125,7.88461538 20.2125,8.46153846 C20.7375,11.5384615 19.228125,13.0128205 18.046875,14.2307692 C17.0625,15.1282051 16.40625,15.8333333 16.471875,17.2435897 C16.5375,19.1025641 19.096875,20.8974359 20.08125,21.4102564 C20.671875,21.7307692 20.86875,22.3717949 20.540625,22.9487179 C20.2125,23.3333333 19.81875,23.525641 19.425,23.525641 L19.425,23.525641 Z" id="Shape"></path>
                            <path d="M5.38125,23.8461538 C5.184375,23.8461538 4.9875,23.7820513 4.85625,23.7179487 C4.659375,23.5897436 0.196875,21.2179487 0.065625,17.6282051 C-0.065625,12.9487179 3.4125,10.7692308 3.54375,10.7051282 C4.06875,10.3846154 4.790625,10.5128205 5.11875,11.0897436 C5.446875,11.6025641 5.315625,12.3076923 4.725,12.6282051 C4.659375,12.6923077 2.23125,14.2307692 2.3625,17.5641026 C2.428125,19.4230769 4.9875,21.2179487 5.971875,21.7307692 C6.5625,22.0512821 6.759375,22.6923077 6.43125,23.2692308 C6.16875,23.6538462 5.775,23.8461538 5.38125,23.8461538 L5.38125,23.8461538 Z" id="Shape"></path>
                        </g>
                    </g>
                </g>
            </g>
        </g>
    </g>
</svg>